<mxfile host="Electron" agent="Mozilla/5.0 (Windows NT 10.0; Win64; x64) AppleWebKit/537.36 (KHTML, like Gecko) draw.io/28.0.4 Chrome/138.0.7204.97 Electron/37.2.1 Safari/537.36" version="28.0.4">
  <diagram name="第 1 页" id="2yHdQtIkflrEDWWDGN0C">
    <mxGraphModel dx="4707" dy="2757" grid="0" gridSize="10" guides="1" tooltips="1" connect="1" arrows="1" fold="1" page="1" pageScale="1" pageWidth="3300" pageHeight="4681" background="none" math="0" shadow="0">
      <root>
        <mxCell id="0" />
        <mxCell id="1" parent="0" />
        <mxCell id="DiK6o-BC5j8XPixK7rim-29" value="" style="rounded=0;whiteSpace=wrap;html=1;strokeColor=#457B9D;fontColor=#1D3557;fillColor=none;strokeWidth=5;" vertex="1" parent="1">
          <mxGeometry x="140" y="1877" width="932" height="655" as="geometry" />
        </mxCell>
        <mxCell id="DiK6o-BC5j8XPixK7rim-21" value="" style="rounded=0;whiteSpace=wrap;html=1;strokeColor=#457B9D;fontColor=#1D3557;fillColor=none;strokeWidth=5;" vertex="1" parent="1">
          <mxGeometry x="140" y="134" width="2923" height="1694" as="geometry" />
        </mxCell>
        <mxCell id="DiK6o-BC5j8XPixK7rim-16" style="edgeStyle=orthogonalEdgeStyle;rounded=0;orthogonalLoop=1;jettySize=auto;html=1;strokeColor=#457B9D;fontColor=default;fillColor=#A8DADC;strokeWidth=2;startSize=20;endSize=20;endArrow=block;endFill=0;labelBackgroundColor=none;" edge="1" parent="1" source="lP_S5FxGJT-6sJz9UhhX-36" target="G8m6GsgR82rq_fYz5S8Y-65">
          <mxGeometry relative="1" as="geometry" />
        </mxCell>
        <mxCell id="lP_S5FxGJT-6sJz9UhhX-36" value="&lt;font style=&quot;font-size: 16px;&quot;&gt;DrawPage&lt;/font&gt;" style="swimlane;fontStyle=1;align=center;verticalAlign=top;childLayout=stackLayout;horizontal=1;startSize=29;horizontalStack=0;resizeParent=1;resizeParentMax=0;resizeLast=0;collapsible=1;marginBottom=0;whiteSpace=wrap;html=1;labelBackgroundColor=none;fillColor=#A8DADC;strokeColor=#457B9D;fontColor=#1D3557;shadow=0;" parent="1" vertex="1">
          <mxGeometry x="1934" y="1239" width="430" height="553" as="geometry" />
        </mxCell>
        <mxCell id="lP_S5FxGJT-6sJz9UhhX-37" value="&lt;span style=&quot;background-color: transparent; color: light-dark(rgb(57, 60, 86), rgb(182, 184, 207));&quot;&gt;# REGISTER_DMS: dict[str, type[IDrawMember]]&lt;/span&gt;&lt;br&gt;&lt;span style=&quot;background-color: transparent; color: light-dark(rgb(57, 60, 86), rgb(182, 184, 207));&quot;&gt;# _draw_member_frames: dict[str, RowFrame]&lt;/span&gt;&lt;br&gt;&lt;span style=&quot;background-color: transparent; color: light-dark(rgb(57, 60, 86), rgb(182, 184, 207));&quot;&gt;#&amp;nbsp;_row_frame_shared_config: dict[str, Any]&lt;/span&gt;&lt;div&gt;+ draw_member_list: list[str]&lt;br&gt;&lt;hr style=&quot;background-color: transparent; color: light-dark(rgb(57, 60, 86), rgb(182, 184, 207));&quot;&gt;&lt;span style=&quot;background-color: transparent; color: light-dark(rgb(57, 60, 86), rgb(182, 184, 207));&quot;&gt;#&amp;nbsp;_dm_frame: tkinter.Frame&lt;/span&gt;&lt;br&gt;&lt;span style=&quot;background-color: transparent; color: light-dark(rgb(57, 60, 86), rgb(182, 184, 207));&quot;&gt;# _dm_frame: tkinter.Frame&lt;/span&gt;&lt;br&gt;&lt;span style=&quot;background-color: transparent; color: light-dark(rgb(57, 60, 86), rgb(182, 184, 207));&quot;&gt;# _operate_frame: tkinter.Frame&lt;/span&gt;&lt;br&gt;&lt;span style=&quot;background-color: transparent; color: light-dark(rgb(57, 60, 86), rgb(182, 184, 207));&quot;&gt;# _banner_frame: tkinter.Frame&lt;/span&gt;&lt;br&gt;&lt;span style=&quot;background-color: transparent; color: light-dark(rgb(57, 60, 86), rgb(182, 184, 207));&quot;&gt;# _dm_type_label: tkinter.Label&lt;/span&gt;&lt;br&gt;&lt;span style=&quot;background-color: transparent; color: light-dark(rgb(57, 60, 86), rgb(182, 184, 207));&quot;&gt;# _dm_cbbox: tkinter.ttk.Combobox&lt;/span&gt;&lt;br&gt;&lt;span style=&quot;background-color: transparent; color: light-dark(rgb(57, 60, 86), rgb(182, 184, 207));&quot;&gt;# _lock_button: tkinter.Button&lt;/span&gt;&lt;br&gt;&lt;span style=&quot;background-color: transparent; color: light-dark(rgb(57, 60, 86), rgb(182, 184, 207));&quot;&gt;# _add_dm_button: tkinter.Button&lt;/span&gt;&lt;br&gt;&lt;span style=&quot;background-color: transparent; color: light-dark(rgb(57, 60, 86), rgb(182, 184, 207));&quot;&gt;# _remove_dm_button: tkinter.Button&lt;/span&gt;&lt;br&gt;&lt;span style=&quot;background-color: transparent; color: light-dark(rgb(57, 60, 86), rgb(182, 184, 207));&quot;&gt;# _reset_button: tkinter.Button&lt;/span&gt;&lt;br&gt;&lt;span style=&quot;background-color: transparent; color: light-dark(rgb(57, 60, 86), rgb(182, 184, 207));&quot;&gt;# _import_banner_button: tkinter.Button&lt;/span&gt;&lt;br&gt;&lt;span style=&quot;background-color: transparent; color: light-dark(rgb(57, 60, 86), rgb(182, 184, 207));&quot;&gt;# _save_banner_button: tkinter.Button&lt;/span&gt;&lt;br&gt;&lt;span style=&quot;background-color: transparent; color: light-dark(rgb(57, 60, 86), rgb(182, 184, 207));&quot;&gt;# _draw_button: tkinter.Button&lt;/span&gt;&lt;br&gt;&lt;span style=&quot;background-color: transparent; color: light-dark(rgb(57, 60, 86), rgb(182, 184, 207));&quot;&gt;# _result_lframe: tkinter.LabelFrame&lt;/span&gt;&lt;br&gt;&lt;div&gt;&lt;div&gt;# _result_label: tkinter.Label&lt;/div&gt;&lt;/div&gt;&lt;/div&gt;" style="text;strokeColor=none;fillColor=none;align=left;verticalAlign=top;spacingLeft=4;spacingRight=4;overflow=hidden;rotatable=0;points=[[0,0.5],[1,0.5]];portConstraint=eastwest;whiteSpace=wrap;html=1;labelBackgroundColor=none;fontColor=#1D3557;" parent="lP_S5FxGJT-6sJz9UhhX-36" vertex="1">
          <mxGeometry y="29" width="430" height="302" as="geometry" />
        </mxCell>
        <mxCell id="lP_S5FxGJT-6sJz9UhhX-38" value="" style="line;strokeWidth=1;fillColor=none;align=left;verticalAlign=middle;spacingTop=-1;spacingLeft=3;spacingRight=3;rotatable=0;labelPosition=right;points=[];portConstraint=eastwest;strokeColor=#457B9D;labelBackgroundColor=none;fontColor=#1D3557;" parent="lP_S5FxGJT-6sJz9UhhX-36" vertex="1">
          <mxGeometry y="331" width="430" height="8" as="geometry" />
        </mxCell>
        <mxCell id="lP_S5FxGJT-6sJz9UhhX-39" value="# &amp;lt;&amp;lt;classmethod&amp;gt;&amp;gt;&amp;nbsp;get_register_type_names(cls) -&amp;gt; tuple[str, ...]&lt;div&gt;+&amp;nbsp;layout(self) -&amp;gt; None&lt;/div&gt;&lt;div&gt;-&amp;nbsp;__command_lock_draw_banner_type(self) -&amp;gt; None&lt;/div&gt;&lt;div&gt;+&amp;nbsp;add_draw_member(self, value_pack_dict: dict[str, Any]) -&amp;gt; None&lt;/div&gt;&lt;div&gt;-&amp;nbsp;__create_draw_member_title(self, type_of_dm: type[IDrawMember]) -&amp;gt; None&lt;/div&gt;&lt;div&gt;-&amp;nbsp;__auto_set_config_when_lock(self) -&amp;gt; None&lt;/div&gt;&lt;div&gt;-&amp;nbsp;__auto_set_config_when_unlock(self) -&amp;gt; None&lt;/div&gt;&lt;div&gt;-&amp;nbsp;__command_add_draw_member(self) -&amp;gt; None&lt;/div&gt;&lt;div&gt;-&amp;nbsp;__command_remove_draw_member(self) -&amp;gt; None&lt;/div&gt;&lt;div&gt;-&amp;nbsp;__command_reset_banner(self) -&amp;gt; None&lt;/div&gt;&lt;div&gt;-&amp;nbsp;__command_import_banner(self) -&amp;gt; None&lt;/div&gt;&lt;div&gt;-&amp;nbsp;__command_save_banner(self) -&amp;gt; None&lt;/div&gt;&lt;div&gt;-&amp;nbsp;__command_draw(self) -&amp;gt; None&lt;/div&gt;&lt;div&gt;-&amp;nbsp;refresh_draw_container(self) -&amp;gt; None&lt;/div&gt;" style="text;strokeColor=none;fillColor=none;align=left;verticalAlign=top;spacingLeft=4;spacingRight=4;overflow=hidden;rotatable=0;points=[[0,0.5],[1,0.5]];portConstraint=eastwest;whiteSpace=wrap;html=1;labelBackgroundColor=none;fontColor=#1D3557;" parent="lP_S5FxGJT-6sJz9UhhX-36" vertex="1">
          <mxGeometry y="339" width="430" height="214" as="geometry" />
        </mxCell>
        <mxCell id="DiK6o-BC5j8XPixK7rim-17" style="edgeStyle=orthogonalEdgeStyle;rounded=0;orthogonalLoop=1;jettySize=auto;html=1;entryX=1;entryY=0.5;entryDx=0;entryDy=0;strokeColor=#457B9D;fontColor=default;fillColor=#A8DADC;strokeWidth=2;startSize=20;endSize=20;startArrow=diamondThin;startFill=1;endArrow=open;endFill=0;labelBackgroundColor=none;" edge="1" parent="1" source="75FN_xYvOPIcK4fOtZHh-2" target="lP_S5FxGJT-6sJz9UhhX-37">
          <mxGeometry relative="1" as="geometry" />
        </mxCell>
        <mxCell id="75FN_xYvOPIcK4fOtZHh-2" value="&lt;font style=&quot;font-size: 16px;&quot;&gt;AddDrawMemeberPage&lt;/font&gt;" style="swimlane;fontStyle=1;align=center;verticalAlign=middle;childLayout=stackLayout;horizontal=1;startSize=30;horizontalStack=0;resizeParent=1;resizeParentMax=0;resizeLast=0;collapsible=1;marginBottom=0;whiteSpace=wrap;html=1;strokeColor=#457B9D;fontColor=#1D3557;fillColor=#A8DADC;labelBackgroundColor=none;rounded=0;fontFamily=Helvetica;fontSize=11;" parent="1" vertex="1">
          <mxGeometry x="2589" y="1130" width="382" height="289" as="geometry" />
        </mxCell>
        <mxCell id="75FN_xYvOPIcK4fOtZHh-3" value="&lt;font style=&quot;font-size: 12px;&quot;&gt;#&amp;nbsp;_parent_page:&amp;nbsp;DrawPage&lt;/font&gt;&lt;div&gt;&lt;font style=&quot;font-size: 12px;&quot;&gt;#&amp;nbsp;_dm_sig:&amp;nbsp;inspect.Signature&lt;/font&gt;&lt;/div&gt;&lt;div&gt;&lt;font style=&quot;font-size: 12px;&quot;&gt;#&amp;nbsp;_draw_member_opts: dict[str, tkinter.StringVar]&lt;/font&gt;&lt;/div&gt;&lt;div&gt;&lt;font style=&quot;font-size: 12px;&quot;&gt;#&amp;nbsp;_interact_window: tkinter.Toplevel&lt;/font&gt;&lt;/div&gt;&lt;div&gt;&lt;font style=&quot;font-size: 12px;&quot;&gt;#&amp;nbsp;_shared_cnf: dict[str, Any]&lt;/font&gt;&lt;/div&gt;&lt;div&gt;&lt;font style=&quot;font-size: 12px;&quot;&gt;#&amp;nbsp;_button_frame: tkinter.Frame&lt;/font&gt;&lt;/div&gt;&lt;div&gt;&lt;font style=&quot;font-size: 12px;&quot;&gt;#&amp;nbsp;_confirm_but: tkinter.Button&lt;/font&gt;&lt;/div&gt;&lt;div&gt;&lt;font style=&quot;font-size: 12px;&quot;&gt;#&amp;nbsp;_cancel_but: tkinter.Button&lt;/font&gt;&lt;/div&gt;" style="text;strokeColor=none;fillColor=none;align=left;verticalAlign=top;spacingLeft=4;spacingRight=4;overflow=hidden;rotatable=0;points=[[0,0.5],[1,0.5]];portConstraint=eastwest;whiteSpace=wrap;html=1;fontColor=#1D3557;labelBackgroundColor=none;fontFamily=Helvetica;fontSize=11;" parent="75FN_xYvOPIcK4fOtZHh-2" vertex="1">
          <mxGeometry y="30" width="382" height="132" as="geometry" />
        </mxCell>
        <mxCell id="75FN_xYvOPIcK4fOtZHh-4" value="" style="line;strokeWidth=1;fillColor=#A8DADC;align=center;verticalAlign=middle;spacingTop=-1;spacingLeft=3;spacingRight=3;rotatable=0;labelPosition=right;points=[];portConstraint=eastwest;strokeColor=#457B9D;fontColor=#1D3557;labelBackgroundColor=none;rounded=0;fontFamily=Helvetica;fontSize=11;" parent="75FN_xYvOPIcK4fOtZHh-2" vertex="1">
          <mxGeometry y="162" width="382" height="8" as="geometry" />
        </mxCell>
        <mxCell id="75FN_xYvOPIcK4fOtZHh-5" value="&lt;font style=&quot;font-size: 12px;&quot;&gt;&amp;lt;&amp;lt;__init__&amp;gt;&amp;gt;&amp;nbsp;AddDrawMemeberPage(self, parent_page: DrawPage)&lt;/font&gt;&lt;div&gt;&lt;font style=&quot;font-size: 12px;&quot;&gt;-&amp;nbsp;__on_closing(self) -&amp;gt; None&lt;/font&gt;&lt;/div&gt;&lt;div&gt;&lt;font style=&quot;font-size: 12px;&quot;&gt;-&amp;nbsp;__confirm_member(self) -&amp;gt; None&lt;/font&gt;&lt;/div&gt;&lt;div&gt;&lt;font style=&quot;font-size: 12px;&quot;&gt;-&amp;nbsp;__clear_input(self) -&amp;gt; None&lt;/font&gt;&lt;/div&gt;&lt;div&gt;&lt;font style=&quot;font-size: 12px;&quot;&gt;-&amp;nbsp;__cancel(self) -&amp;gt; None&lt;/font&gt;&lt;/div&gt;&lt;div&gt;&lt;font style=&quot;font-size: 12px;&quot;&gt;+&amp;nbsp;layout(self) -&amp;gt; None&lt;/font&gt;&lt;/div&gt;&lt;div&gt;&lt;br&gt;&lt;/div&gt;" style="text;strokeColor=none;fillColor=none;align=left;verticalAlign=top;spacingLeft=4;spacingRight=4;overflow=hidden;rotatable=0;points=[[0,0.5],[1,0.5]];portConstraint=eastwest;whiteSpace=wrap;html=1;fontColor=#1D3557;labelBackgroundColor=none;fontFamily=Helvetica;fontSize=11;" parent="75FN_xYvOPIcK4fOtZHh-2" vertex="1">
          <mxGeometry y="170" width="382" height="119" as="geometry" />
        </mxCell>
        <mxCell id="G8m6GsgR82rq_fYz5S8Y-6" value="&lt;font style=&quot;font-size: 16px;&quot;&gt;RemoveDrawMemeberPage&lt;/font&gt;" style="swimlane;fontStyle=1;align=center;verticalAlign=middle;childLayout=stackLayout;horizontal=1;startSize=30;horizontalStack=0;resizeParent=1;resizeParentMax=0;resizeLast=0;collapsible=1;marginBottom=0;whiteSpace=wrap;html=1;strokeColor=#457B9D;fontColor=#1D3557;fillColor=#A8DADC;labelBackgroundColor=none;rounded=0;fontFamily=Helvetica;fontSize=11;" parent="1" vertex="1">
          <mxGeometry x="2586" y="1495" width="382" height="297" as="geometry" />
        </mxCell>
        <mxCell id="G8m6GsgR82rq_fYz5S8Y-7" value="&lt;font style=&quot;font-size: 12px;&quot;&gt;#&amp;nbsp;_parent_page:&amp;nbsp;DrawPage&lt;/font&gt;&lt;div&gt;&lt;span style=&quot;font-size: 12px; background-color: transparent; color: light-dark(rgb(0, 0, 0), rgb(255, 255, 255));&quot;&gt;#&amp;nbsp;_interact_window: tkinter.Toplevel&lt;/span&gt;&lt;/div&gt;&lt;div&gt;&lt;font style=&quot;font-size: 12px;&quot;&gt;#&amp;nbsp;_shared_cnf: dict[str, Any]&lt;/font&gt;&lt;/div&gt;&lt;div&gt;&lt;div&gt;&lt;span style=&quot;font-size: 12px;&quot;&gt;# _opt_frame: tkinter.Frame&lt;/span&gt;&lt;/div&gt;&lt;div&gt;&lt;span style=&quot;font-size: 12px;&quot;&gt;# _name_label: tkinter.Label&lt;/span&gt;&lt;/div&gt;&lt;div&gt;&lt;span style=&quot;font-size: 12px;&quot;&gt;# _name_cbbox: tkinter.ttk.Combobox&lt;/span&gt;&lt;/div&gt;&lt;div&gt;&lt;span style=&quot;font-size: 12px;&quot;&gt;# _refresh_button: tkinter.Button&lt;/span&gt;&lt;/div&gt;&lt;div&gt;&lt;span style=&quot;font-size: 12px;&quot;&gt;# _button_frame: tkinter.Frame&lt;/span&gt;&lt;/div&gt;&lt;div&gt;&lt;span style=&quot;font-size: 12px;&quot;&gt;# _confirm_but: tkinter.Button&lt;/span&gt;&lt;/div&gt;&lt;div&gt;&lt;span style=&quot;font-size: 12px;&quot;&gt;# _cancel_but: tkinter.Button&lt;/span&gt;&lt;/div&gt;&lt;/div&gt;" style="text;strokeColor=none;fillColor=none;align=left;verticalAlign=top;spacingLeft=4;spacingRight=4;overflow=hidden;rotatable=0;points=[[0,0.5],[1,0.5]];portConstraint=eastwest;whiteSpace=wrap;html=1;fontColor=#1D3557;labelBackgroundColor=none;fontFamily=Helvetica;fontSize=11;" parent="G8m6GsgR82rq_fYz5S8Y-6" vertex="1">
          <mxGeometry y="30" width="382" height="160" as="geometry" />
        </mxCell>
        <mxCell id="G8m6GsgR82rq_fYz5S8Y-8" value="" style="line;strokeWidth=1;fillColor=#A8DADC;align=center;verticalAlign=middle;spacingTop=-1;spacingLeft=3;spacingRight=3;rotatable=0;labelPosition=right;points=[];portConstraint=eastwest;strokeColor=#457B9D;fontColor=#1D3557;labelBackgroundColor=none;rounded=0;fontFamily=Helvetica;fontSize=11;" parent="G8m6GsgR82rq_fYz5S8Y-6" vertex="1">
          <mxGeometry y="190" width="382" height="8" as="geometry" />
        </mxCell>
        <mxCell id="G8m6GsgR82rq_fYz5S8Y-9" value="&lt;font style=&quot;font-size: 12px;&quot;&gt;&amp;lt;&amp;lt;__init__&amp;gt;&amp;gt;&amp;nbsp;AddDrawMemeberPage(self, parent_page: DrawPage)&lt;/font&gt;&lt;div&gt;&lt;span style=&quot;font-size: 12px;&quot;&gt;-&amp;nbsp;&lt;/span&gt;&lt;span style=&quot;background-color: transparent; font-size: 12px;&quot;&gt;__on_closing(self) -&amp;gt; None&lt;/span&gt;&lt;/div&gt;&lt;div&gt;&lt;span style=&quot;background-color: transparent; font-size: 12px;&quot;&gt;-&amp;nbsp;&lt;/span&gt;&lt;span style=&quot;background-color: transparent; font-size: 12px;&quot;&gt;__confirm_member(self) -&amp;gt; None&lt;/span&gt;&lt;/div&gt;&lt;div&gt;&lt;span style=&quot;background-color: transparent; font-size: 12px;&quot;&gt;-&amp;nbsp;&lt;/span&gt;&lt;span style=&quot;background-color: transparent; font-size: 12px;&quot;&gt;__cancel(self) -&amp;gt; None&lt;/span&gt;&lt;/div&gt;&lt;div&gt;&lt;span style=&quot;background-color: transparent; font-size: 12px;&quot;&gt;+&amp;nbsp;&lt;/span&gt;&lt;span style=&quot;background-color: transparent; font-size: 12px;&quot;&gt;layout(self) -&amp;gt; None&lt;/span&gt;&lt;/div&gt;&lt;div&gt;&lt;span style=&quot;font-size: 12px;&quot;&gt;#&amp;nbsp;&lt;/span&gt;&lt;span style=&quot;background-color: transparent; font-size: 12px;&quot;&gt;_command_refresh_list(self) -&amp;gt; None&lt;/span&gt;&lt;/div&gt;&lt;div&gt;&lt;br&gt;&lt;/div&gt;" style="text;strokeColor=none;fillColor=none;align=left;verticalAlign=top;spacingLeft=4;spacingRight=4;overflow=hidden;rotatable=0;points=[[0,0.5],[1,0.5]];portConstraint=eastwest;whiteSpace=wrap;html=1;fontColor=#1D3557;labelBackgroundColor=none;fontFamily=Helvetica;fontSize=11;" parent="G8m6GsgR82rq_fYz5S8Y-6" vertex="1">
          <mxGeometry y="198" width="382" height="99" as="geometry" />
        </mxCell>
        <mxCell id="G8m6GsgR82rq_fYz5S8Y-17" value="&lt;font style=&quot;font-size: 16px;&quot;&gt;BaseDrawMember&lt;/font&gt;" style="swimlane;fontStyle=1;align=center;verticalAlign=top;childLayout=stackLayout;horizontal=1;startSize=29;horizontalStack=0;resizeParent=1;resizeParentMax=0;resizeLast=0;collapsible=1;marginBottom=0;whiteSpace=wrap;html=1;strokeColor=#457B9D;fontColor=#1D3557;fillColor=#A8DADC;labelBackgroundColor=none;" parent="1" vertex="1">
          <mxGeometry x="683" y="2016" width="366" height="149" as="geometry" />
        </mxCell>
        <mxCell id="G8m6GsgR82rq_fYz5S8Y-18" value="#&amp;nbsp;_EXPOSE_OPTS: tuple[str, ...]&lt;div&gt;#&amp;nbsp;_member_info_dict: dict[str, str | int]&lt;/div&gt;&lt;div&gt;&lt;br&gt;&lt;/div&gt;" style="text;strokeColor=none;fillColor=none;align=left;verticalAlign=top;spacingLeft=4;spacingRight=4;overflow=hidden;rotatable=0;points=[[0,0.5],[1,0.5]];portConstraint=eastwest;whiteSpace=wrap;html=1;fontColor=#1D3557;labelBackgroundColor=none;" parent="G8m6GsgR82rq_fYz5S8Y-17" vertex="1">
          <mxGeometry y="29" width="366" height="45" as="geometry" />
        </mxCell>
        <mxCell id="G8m6GsgR82rq_fYz5S8Y-19" value="" style="line;strokeWidth=1;fillColor=none;align=left;verticalAlign=middle;spacingTop=-1;spacingLeft=3;spacingRight=3;rotatable=0;labelPosition=right;points=[];portConstraint=eastwest;strokeColor=#457B9D;fontColor=#1D3557;labelBackgroundColor=none;" parent="G8m6GsgR82rq_fYz5S8Y-17" vertex="1">
          <mxGeometry y="74" width="366" height="8" as="geometry" />
        </mxCell>
        <mxCell id="G8m6GsgR82rq_fYz5S8Y-20" value="&amp;lt;&amp;lt;__init__&amp;gt;&amp;gt;&amp;nbsp;BaseDrawMember(self, name: str, proportion: int = 1)&lt;div&gt;+&amp;nbsp;member_info(self) -&amp;gt; dict[str, str | int]&lt;/div&gt;&lt;div&gt;+&amp;nbsp;name(self) -&amp;gt; str&lt;/div&gt;&lt;div&gt;+&amp;nbsp;proportion(self) -&amp;gt; int&lt;/div&gt;" style="text;strokeColor=none;fillColor=none;align=left;verticalAlign=top;spacingLeft=4;spacingRight=4;overflow=hidden;rotatable=0;points=[[0,0.5],[1,0.5]];portConstraint=eastwest;whiteSpace=wrap;html=1;fontColor=#1D3557;labelBackgroundColor=none;" parent="G8m6GsgR82rq_fYz5S8Y-17" vertex="1">
          <mxGeometry y="82" width="366" height="67" as="geometry" />
        </mxCell>
        <mxCell id="G8m6GsgR82rq_fYz5S8Y-24" value="&lt;font style=&quot;font-size: 16px;&quot;&gt;Banner&lt;/font&gt;" style="swimlane;fontStyle=1;align=center;verticalAlign=top;childLayout=stackLayout;horizontal=1;startSize=29;horizontalStack=0;resizeParent=1;resizeParentMax=0;resizeLast=0;collapsible=1;marginBottom=0;whiteSpace=wrap;html=1;strokeColor=#457B9D;fontColor=#1D3557;fillColor=#A8DADC;labelBackgroundColor=none;" parent="1" vertex="1">
          <mxGeometry x="193" y="2318" width="366" height="188" as="geometry" />
        </mxCell>
        <mxCell id="G8m6GsgR82rq_fYz5S8Y-25" value="&lt;div&gt;#&amp;nbsp;_banner_name: str&lt;/div&gt;&lt;div&gt;#&amp;nbsp;_draw_members: dict[str, DM]&lt;/div&gt;" style="text;strokeColor=none;fillColor=none;align=left;verticalAlign=top;spacingLeft=4;spacingRight=4;overflow=hidden;rotatable=0;points=[[0,0.5],[1,0.5]];portConstraint=eastwest;whiteSpace=wrap;html=1;fontColor=#1D3557;labelBackgroundColor=none;" parent="G8m6GsgR82rq_fYz5S8Y-24" vertex="1">
          <mxGeometry y="29" width="366" height="42" as="geometry" />
        </mxCell>
        <mxCell id="G8m6GsgR82rq_fYz5S8Y-26" value="" style="line;strokeWidth=1;fillColor=none;align=left;verticalAlign=middle;spacingTop=-1;spacingLeft=3;spacingRight=3;rotatable=0;labelPosition=right;points=[];portConstraint=eastwest;strokeColor=#457B9D;fontColor=#1D3557;labelBackgroundColor=none;" parent="G8m6GsgR82rq_fYz5S8Y-24" vertex="1">
          <mxGeometry y="71" width="366" height="8" as="geometry" />
        </mxCell>
        <mxCell id="G8m6GsgR82rq_fYz5S8Y-27" value="&amp;lt;&amp;lt;__init__&amp;gt;&amp;gt;&amp;nbsp;Banner(self, banner_name: str)&lt;div&gt;+&amp;nbsp;add_draw_member(self, draw_member: DM) -&amp;gt; None&lt;/div&gt;&lt;div&gt;+&amp;nbsp;remove_draw_member(self, draw_member_name: str) -&amp;gt; None&lt;/div&gt;&lt;div&gt;+&amp;nbsp;draw(self) -&amp;gt; str&lt;/div&gt;&lt;div&gt;+&amp;nbsp;banner_name(self) -&amp;gt; str&lt;/div&gt;&lt;div&gt;+&amp;nbsp;draw_members(self) -&amp;gt; dict[str, DM]&lt;/div&gt;&lt;div&gt;+&amp;nbsp;draw_member_type(self) -&amp;gt; type[DM]&lt;/div&gt;" style="text;strokeColor=none;fillColor=none;align=left;verticalAlign=top;spacingLeft=4;spacingRight=4;overflow=hidden;rotatable=0;points=[[0,0.5],[1,0.5]];portConstraint=eastwest;whiteSpace=wrap;html=1;fontColor=#1D3557;labelBackgroundColor=none;" parent="G8m6GsgR82rq_fYz5S8Y-24" vertex="1">
          <mxGeometry y="79" width="366" height="109" as="geometry" />
        </mxCell>
        <mxCell id="G8m6GsgR82rq_fYz5S8Y-57" value="&lt;div&gt;&lt;span style=&quot;font-size: 16px;&quot;&gt;&amp;lt;&amp;lt;Interface&amp;gt;&amp;gt;&lt;/span&gt;&lt;/div&gt;&lt;div&gt;&lt;span style=&quot;font-size: 16px;&quot;&gt;ITabPage&lt;/span&gt;&lt;/div&gt;" style="swimlane;fontStyle=1;align=center;verticalAlign=top;childLayout=stackLayout;horizontal=1;startSize=47;horizontalStack=0;resizeParent=1;resizeParentMax=0;resizeLast=0;collapsible=1;marginBottom=0;whiteSpace=wrap;html=1;strokeColor=#457B9D;fontColor=#1D3557;fillColor=#A8DADC;labelBackgroundColor=none;" parent="1" vertex="1">
          <mxGeometry x="213" y="1203" width="617" height="178" as="geometry" />
        </mxCell>
        <mxCell id="G8m6GsgR82rq_fYz5S8Y-58" value="&lt;div&gt;+ &amp;lt;&amp;lt;abstractproperty&amp;gt;&amp;gt; page_name: str&lt;/div&gt;&lt;div&gt;+ &amp;lt;&amp;lt;abstractproperty&amp;gt;&amp;gt; top_window: tkinter.Tk | tkinter.Frame&lt;/div&gt;" style="text;strokeColor=none;fillColor=none;align=left;verticalAlign=top;spacingLeft=4;spacingRight=4;overflow=hidden;rotatable=0;points=[[0,0.5],[1,0.5]];portConstraint=eastwest;whiteSpace=wrap;html=1;fontColor=#1D3557;labelBackgroundColor=none;" parent="G8m6GsgR82rq_fYz5S8Y-57" vertex="1">
          <mxGeometry y="47" width="617" height="42" as="geometry" />
        </mxCell>
        <mxCell id="G8m6GsgR82rq_fYz5S8Y-59" value="" style="line;strokeWidth=1;fillColor=none;align=left;verticalAlign=middle;spacingTop=-1;spacingLeft=3;spacingRight=3;rotatable=0;labelPosition=right;points=[];portConstraint=eastwest;strokeColor=#457B9D;fontColor=#1D3557;labelBackgroundColor=none;" parent="G8m6GsgR82rq_fYz5S8Y-57" vertex="1">
          <mxGeometry y="89" width="617" height="8" as="geometry" />
        </mxCell>
        <mxCell id="G8m6GsgR82rq_fYz5S8Y-60" value="&lt;div&gt;+&amp;nbsp;&lt;span style=&quot;background-color: transparent; color: light-dark(rgb(57, 60, 86), rgb(182, 184, 207));&quot;&gt;&amp;lt;&amp;lt;abstractmethod&amp;gt;&amp;gt;&amp;nbsp;&lt;/span&gt;&lt;span style=&quot;background-color: transparent; color: light-dark(rgb(57, 60, 86), rgb(182, 184, 207));&quot;&gt;__init__(self, page_name: str, attach_manager: TabPageManager | None = None) -&amp;gt; None&lt;/span&gt;&lt;/div&gt;&lt;div&gt;+ &amp;lt;&amp;lt;abstractmethod&amp;gt;&amp;gt; layout(self) -&amp;gt; None&lt;/div&gt;&lt;div&gt;# &amp;lt;&amp;lt;abstractmethod&amp;gt;&amp;gt; _decide_master(self) -&amp;gt; tkinter.Toplevel | tkinter.Frame&lt;/div&gt;&lt;div&gt;# &amp;lt;&amp;lt;abstractmethod&amp;gt;&amp;gt; _show(self) -&amp;gt; None&lt;/div&gt;&lt;div&gt;# &amp;lt;&amp;lt;abstractmethod&amp;gt;&amp;gt; _hide(self) -&amp;gt; None&lt;/div&gt;" style="text;strokeColor=none;fillColor=none;align=left;verticalAlign=top;spacingLeft=4;spacingRight=4;overflow=hidden;rotatable=0;points=[[0,0.5],[1,0.5]];portConstraint=eastwest;whiteSpace=wrap;html=1;fontColor=#1D3557;labelBackgroundColor=none;" parent="G8m6GsgR82rq_fYz5S8Y-57" vertex="1">
          <mxGeometry y="97" width="617" height="81" as="geometry" />
        </mxCell>
        <mxCell id="DiK6o-BC5j8XPixK7rim-11" style="edgeStyle=orthogonalEdgeStyle;rounded=0;orthogonalLoop=1;jettySize=auto;html=1;strokeColor=#457B9D;fontColor=default;fillColor=#A8DADC;startSize=20;endSize=20;strokeWidth=2;endArrow=block;endFill=0;dashed=1;labelBackgroundColor=none;" edge="1" parent="1" source="G8m6GsgR82rq_fYz5S8Y-62" target="G8m6GsgR82rq_fYz5S8Y-57">
          <mxGeometry relative="1" as="geometry" />
        </mxCell>
        <mxCell id="G8m6GsgR82rq_fYz5S8Y-62" value="&lt;font style=&quot;font-size: 16px;&quot;&gt;TabPage&lt;/font&gt;" style="swimlane;fontStyle=1;align=center;verticalAlign=top;childLayout=stackLayout;horizontal=1;startSize=33;horizontalStack=0;resizeParent=1;resizeParentMax=0;resizeLast=0;collapsible=1;marginBottom=0;whiteSpace=wrap;html=1;strokeColor=#457B9D;fontColor=#1D3557;fillColor=#A8DADC;labelBackgroundColor=none;" parent="1" vertex="1">
          <mxGeometry x="998" y="1173" width="581" height="238" as="geometry" />
        </mxCell>
        <mxCell id="G8m6GsgR82rq_fYz5S8Y-63" value="#&amp;nbsp;_page_name: str&lt;div&gt;#&amp;nbsp;_attach_manager:&amp;nbsp;TabPageManager | None&lt;/div&gt;&lt;div&gt;#&amp;nbsp;_layout_flag: bool&lt;/div&gt;&lt;div&gt;#&amp;nbsp;_top_window:&amp;nbsp;tkinter.Tk | tkinter.Frame&lt;/div&gt;&lt;div&gt;+&amp;nbsp;page_name: str&lt;/div&gt;&lt;div&gt;+&amp;nbsp;top_window: tkinter.Tk | tkinter.Frame&lt;/div&gt;" style="text;strokeColor=none;fillColor=none;align=left;verticalAlign=top;spacingLeft=4;spacingRight=4;overflow=hidden;rotatable=0;points=[[0,0.5],[1,0.5]];portConstraint=eastwest;whiteSpace=wrap;html=1;fontColor=#1D3557;labelBackgroundColor=none;" parent="G8m6GsgR82rq_fYz5S8Y-62" vertex="1">
          <mxGeometry y="33" width="581" height="100" as="geometry" />
        </mxCell>
        <mxCell id="G8m6GsgR82rq_fYz5S8Y-64" value="" style="line;strokeWidth=1;fillColor=none;align=left;verticalAlign=middle;spacingTop=-1;spacingLeft=3;spacingRight=3;rotatable=0;labelPosition=right;points=[];portConstraint=eastwest;strokeColor=#457B9D;fontColor=#1D3557;labelBackgroundColor=none;" parent="G8m6GsgR82rq_fYz5S8Y-62" vertex="1">
          <mxGeometry y="133" width="581" height="8" as="geometry" />
        </mxCell>
        <mxCell id="G8m6GsgR82rq_fYz5S8Y-65" value="+ &amp;lt;&amp;lt;__init__&amp;gt;&amp;gt; TabPage(self, page_name: str, attach_manager: TabPageManager | None = None) -&amp;gt; None&lt;div&gt;+&amp;nbsp;layout(self) -&amp;gt; None&amp;nbsp;&amp;lt;&amp;lt;must override&amp;gt;&amp;gt;&lt;br&gt;&lt;div&gt;#&amp;nbsp;_decide_master(self) -&amp;gt; tkinter.Tk | tkinter.Frame&lt;/div&gt;&lt;div&gt;#&amp;nbsp;_show(self) -&amp;gt; None&lt;/div&gt;&lt;div&gt;#&amp;nbsp;_hide(self) -&amp;gt; None&lt;/div&gt;&lt;div&gt;+ run(self) -&amp;gt; None&lt;/div&gt;&lt;/div&gt;" style="text;strokeColor=none;fillColor=none;align=left;verticalAlign=top;spacingLeft=4;spacingRight=4;overflow=hidden;rotatable=0;points=[[0,0.5],[1,0.5]];portConstraint=eastwest;whiteSpace=wrap;html=1;fontColor=#1D3557;labelBackgroundColor=none;" parent="G8m6GsgR82rq_fYz5S8Y-62" vertex="1">
          <mxGeometry y="141" width="581" height="97" as="geometry" />
        </mxCell>
        <mxCell id="G8m6GsgR82rq_fYz5S8Y-71" value="&lt;font style=&quot;font-size: 16px;&quot;&gt;TestPage&lt;/font&gt;" style="swimlane;fontStyle=1;align=center;verticalAlign=top;childLayout=stackLayout;horizontal=1;startSize=33;horizontalStack=0;resizeParent=1;resizeParentMax=0;resizeLast=0;collapsible=1;marginBottom=0;whiteSpace=wrap;html=1;strokeColor=#457B9D;fontColor=#1D3557;fillColor=#A8DADC;labelBackgroundColor=none;" parent="1" vertex="1">
          <mxGeometry x="1941" y="1068" width="159" height="105" as="geometry" />
        </mxCell>
        <mxCell id="G8m6GsgR82rq_fYz5S8Y-72" value="&lt;div&gt;# _show_label: tkinter.Label&lt;/div&gt;&lt;div&gt;# _test_label: tkinter.Label&lt;/div&gt;" style="text;strokeColor=none;fillColor=none;align=left;verticalAlign=top;spacingLeft=4;spacingRight=4;overflow=hidden;rotatable=0;points=[[0,0.5],[1,0.5]];portConstraint=eastwest;whiteSpace=wrap;html=1;fontColor=#1D3557;labelBackgroundColor=none;" parent="G8m6GsgR82rq_fYz5S8Y-71" vertex="1">
          <mxGeometry y="33" width="159" height="39" as="geometry" />
        </mxCell>
        <mxCell id="G8m6GsgR82rq_fYz5S8Y-73" value="" style="line;strokeWidth=1;fillColor=none;align=left;verticalAlign=middle;spacingTop=-1;spacingLeft=3;spacingRight=3;rotatable=0;labelPosition=right;points=[];portConstraint=eastwest;strokeColor=#457B9D;fontColor=#1D3557;labelBackgroundColor=none;" parent="G8m6GsgR82rq_fYz5S8Y-71" vertex="1">
          <mxGeometry y="72" width="159" height="8" as="geometry" />
        </mxCell>
        <mxCell id="G8m6GsgR82rq_fYz5S8Y-74" value="+&amp;nbsp;layout(self) -&amp;gt; None" style="text;strokeColor=none;fillColor=none;align=left;verticalAlign=top;spacingLeft=4;spacingRight=4;overflow=hidden;rotatable=0;points=[[0,0.5],[1,0.5]];portConstraint=eastwest;whiteSpace=wrap;html=1;fontColor=#1D3557;labelBackgroundColor=none;" parent="G8m6GsgR82rq_fYz5S8Y-71" vertex="1">
          <mxGeometry y="80" width="159" height="25" as="geometry" />
        </mxCell>
        <mxCell id="q2OQBRic7TehikJienfv-8" value="DM&amp;nbsp;extends IDrawMember" style="html=1;whiteSpace=wrap;fillColor=#A8DADC;strokeColor=#457B9D;labelBackgroundColor=none;fontColor=#1D3557;" parent="1" vertex="1">
          <mxGeometry x="413" y="2222" width="155" height="30" as="geometry" />
        </mxCell>
        <mxCell id="DiK6o-BC5j8XPixK7rim-10" style="edgeStyle=orthogonalEdgeStyle;rounded=0;orthogonalLoop=1;jettySize=auto;html=1;entryX=0.5;entryY=0;entryDx=0;entryDy=0;strokeColor=#457B9D;fontColor=default;fillColor=#A8DADC;startSize=20;endSize=20;strokeWidth=2;endArrow=open;endFill=0;startArrow=diamondThin;startFill=0;labelBackgroundColor=none;" edge="1" parent="1" source="q2OQBRic7TehikJienfv-14" target="G8m6GsgR82rq_fYz5S8Y-57">
          <mxGeometry relative="1" as="geometry" />
        </mxCell>
        <mxCell id="q2OQBRic7TehikJienfv-14" value="&lt;font style=&quot;font-size: 16px;&quot;&gt;TabPageManager&lt;/font&gt;" style="swimlane;fontStyle=1;align=center;verticalAlign=top;childLayout=stackLayout;horizontal=1;startSize=33;horizontalStack=0;resizeParent=1;resizeParentMax=0;resizeLast=0;collapsible=1;marginBottom=0;whiteSpace=wrap;html=1;strokeColor=#457B9D;fontColor=#1D3557;fillColor=#A8DADC;labelBackgroundColor=none;" parent="1" vertex="1">
          <mxGeometry x="200" y="706" width="643" height="333" as="geometry" />
        </mxCell>
        <mxCell id="q2OQBRic7TehikJienfv-15" value="&lt;div&gt;# _register_types: dict[str, type[ITabPage]]&lt;/div&gt;&lt;div&gt;# _tab_pages: dict[str, ITabPage]&lt;/div&gt;&lt;div&gt;# _tab_page_buttons: dict[str, tkinter.Button]&lt;/div&gt;&lt;div&gt;# _current_page_name: str | None&lt;/div&gt;&lt;div&gt;- __main_window:&amp;nbsp;tkinter.Tk&lt;/div&gt;&lt;div&gt;- __type_of_layout: type[ITabPageManagerLayout]&lt;/div&gt;&lt;div&gt;- __layout: ITabPageManagerLayout&lt;/div&gt;&lt;div&gt;+&amp;nbsp;main_window: tkinter.Tk&lt;/div&gt;&lt;div&gt;+&amp;nbsp;layout: ITabPageManagerLayout&lt;/div&gt;&lt;div&gt;&lt;/div&gt;" style="text;strokeColor=none;fillColor=none;align=left;verticalAlign=top;spacingLeft=4;spacingRight=4;overflow=hidden;rotatable=0;points=[[0,0.5],[1,0.5]];portConstraint=eastwest;whiteSpace=wrap;html=1;fontColor=#1D3557;labelBackgroundColor=none;" parent="q2OQBRic7TehikJienfv-14" vertex="1">
          <mxGeometry y="33" width="643" height="137" as="geometry" />
        </mxCell>
        <mxCell id="q2OQBRic7TehikJienfv-16" value="" style="line;strokeWidth=1;fillColor=none;align=left;verticalAlign=middle;spacingTop=-1;spacingLeft=3;spacingRight=3;rotatable=0;labelPosition=right;points=[];portConstraint=eastwest;strokeColor=#457B9D;fontColor=#1D3557;labelBackgroundColor=none;" parent="q2OQBRic7TehikJienfv-14" vertex="1">
          <mxGeometry y="170" width="643" height="8" as="geometry" />
        </mxCell>
        <mxCell id="q2OQBRic7TehikJienfv-17" value="+ &amp;lt;&amp;lt;__init__&amp;gt;&amp;gt; TabPageManager(self, type_of_layout: type[ITabPageManagerLayout]) -&amp;gt; None&lt;div&gt;+&amp;nbsp;register_page(self, type_of_page: type[ITabPage]) -&amp;gt; None&lt;br&gt;&lt;div&gt;+&amp;nbsp;refresh_pages_frame(self) -&amp;gt; None&lt;/div&gt;&lt;div&gt;+&amp;nbsp;add_tab_page(self, tab_page: ITabPage) -&amp;gt; None&lt;/div&gt;&lt;/div&gt;&lt;div&gt;+&amp;nbsp;remove_tab_page(self, page_name: str) -&amp;gt; None&lt;/div&gt;&lt;div&gt;+&amp;nbsp;button_command_change_page(self, tab_page: ITabPage) -&amp;gt; None&lt;/div&gt;&lt;div&gt;+&amp;nbsp;button_command_create_page(self) -&amp;gt; None&lt;/div&gt;&lt;div&gt;+&amp;nbsp;button_command_remove_page(self) -&amp;gt; None&lt;/div&gt;&lt;div&gt;+&amp;nbsp;bind_button_command_to_widget(self) -&amp;gt; None&lt;/div&gt;&lt;div&gt;+&amp;nbsp;run(self) -&amp;gt; None&lt;/div&gt;" style="text;strokeColor=none;fillColor=none;align=left;verticalAlign=top;spacingLeft=4;spacingRight=4;overflow=hidden;rotatable=0;points=[[0,0.5],[1,0.5]];portConstraint=eastwest;whiteSpace=wrap;html=1;fontColor=#1D3557;labelBackgroundColor=none;" parent="q2OQBRic7TehikJienfv-14" vertex="1">
          <mxGeometry y="178" width="643" height="155" as="geometry" />
        </mxCell>
        <mxCell id="fwF8BYyaE2Du0UEf7IU_-13" value="&lt;div&gt;&lt;span style=&quot;font-size: 16px;&quot;&gt;&amp;lt;&amp;lt;Interface&amp;gt;&amp;gt;&lt;/span&gt;&lt;/div&gt;&lt;div&gt;&lt;span style=&quot;font-size: 16px;&quot;&gt;ITabPageManagerLayout&lt;/span&gt;&lt;/div&gt;" style="swimlane;fontStyle=1;align=center;verticalAlign=top;childLayout=stackLayout;horizontal=1;startSize=47;horizontalStack=0;resizeParent=1;resizeParentMax=0;resizeLast=0;collapsible=1;marginBottom=0;whiteSpace=wrap;html=1;strokeColor=#457B9D;fontColor=#1D3557;fillColor=#A8DADC;labelBackgroundColor=none;" parent="1" vertex="1">
          <mxGeometry x="220" y="323" width="617" height="215" as="geometry" />
        </mxCell>
        <mxCell id="fwF8BYyaE2Du0UEf7IU_-14" value="&lt;div&gt;+ &amp;lt;&amp;lt;abstractproperty&amp;gt;&amp;gt; menubar_frame: tkinter.Frame&lt;/div&gt;&lt;div&gt;+ &amp;lt;&amp;lt;abstractproperty&amp;gt;&amp;gt; pages_frame: tkinter.Frame&lt;/div&gt;&lt;div&gt;+ &amp;lt;&amp;lt;abstractproperty&amp;gt;&amp;gt;&amp;nbsp;page_content_frame: tkinter.Frame&lt;/div&gt;&lt;div&gt;+ &amp;lt;&amp;lt;abstractproperty&amp;gt;&amp;gt;&amp;nbsp;operate_mb: tkinter.Menubutton&lt;/div&gt;&lt;div&gt;+ &amp;lt;&amp;lt;abstractproperty&amp;gt;&amp;gt;&amp;nbsp;operate_menu: tkinter.Menu&lt;/div&gt;&lt;div&gt;+ &amp;lt;&amp;lt;abstractproperty&amp;gt;&amp;gt;&amp;nbsp;select_page_button_color: str&lt;/div&gt;&lt;div&gt;+ &amp;lt;&amp;lt;abstractproperty&amp;gt;&amp;gt;&amp;nbsp;unselect_page_button_color: str&lt;/div&gt;" style="text;strokeColor=none;fillColor=none;align=left;verticalAlign=top;spacingLeft=4;spacingRight=4;overflow=hidden;rotatable=0;points=[[0,0.5],[1,0.5]];portConstraint=eastwest;whiteSpace=wrap;html=1;fontColor=#1D3557;labelBackgroundColor=none;" parent="fwF8BYyaE2Du0UEf7IU_-13" vertex="1">
          <mxGeometry y="47" width="617" height="107" as="geometry" />
        </mxCell>
        <mxCell id="fwF8BYyaE2Du0UEf7IU_-15" value="" style="line;strokeWidth=1;fillColor=none;align=left;verticalAlign=middle;spacingTop=-1;spacingLeft=3;spacingRight=3;rotatable=0;labelPosition=right;points=[];portConstraint=eastwest;strokeColor=#457B9D;fontColor=#1D3557;labelBackgroundColor=none;" parent="fwF8BYyaE2Du0UEf7IU_-13" vertex="1">
          <mxGeometry y="154" width="617" height="8" as="geometry" />
        </mxCell>
        <mxCell id="fwF8BYyaE2Du0UEf7IU_-16" value="&lt;div&gt;+&amp;nbsp;&lt;span style=&quot;background-color: transparent; color: light-dark(rgb(57, 60, 86), rgb(182, 184, 207));&quot;&gt;&amp;lt;&amp;lt;abstractmethod&amp;gt;&amp;gt;&amp;nbsp;&lt;/span&gt;&lt;span style=&quot;background-color: transparent; color: light-dark(rgb(57, 60, 86), rgb(182, 184, 207));&quot;&gt;__init__&lt;/span&gt;&lt;span style=&quot;background-color: transparent;&quot;&gt;(self, master) -&amp;gt; None&lt;/span&gt;&lt;/div&gt;&lt;div&gt;+ &amp;lt;&amp;lt;abstractmethod&amp;gt;&amp;gt; create_widget(self) -&amp;gt; None&lt;/div&gt;&lt;div&gt;+ &amp;lt;&amp;lt;abstractmethod&amp;gt;&amp;gt; deploy_widget(self) -&amp;gt; None&lt;/div&gt;" style="text;strokeColor=none;fillColor=none;align=left;verticalAlign=top;spacingLeft=4;spacingRight=4;overflow=hidden;rotatable=0;points=[[0,0.5],[1,0.5]];portConstraint=eastwest;whiteSpace=wrap;html=1;fontColor=#1D3557;labelBackgroundColor=none;" parent="fwF8BYyaE2Du0UEf7IU_-13" vertex="1">
          <mxGeometry y="162" width="617" height="53" as="geometry" />
        </mxCell>
        <mxCell id="fwF8BYyaE2Du0UEf7IU_-17" value="&lt;font style=&quot;font-size: 16px;&quot;&gt;DefaultLayoutTPM&lt;/font&gt;" style="swimlane;fontStyle=1;align=center;verticalAlign=top;childLayout=stackLayout;horizontal=1;startSize=33;horizontalStack=0;resizeParent=1;resizeParentMax=0;resizeLast=0;collapsible=1;marginBottom=0;whiteSpace=wrap;html=1;strokeColor=#457B9D;fontColor=#1D3557;fillColor=#A8DADC;labelBackgroundColor=none;" parent="1" vertex="1">
          <mxGeometry x="979" y="347" width="643" height="139" as="geometry" />
        </mxCell>
        <mxCell id="fwF8BYyaE2Du0UEf7IU_-18" value="&lt;div&gt;&lt;div&gt;- __master = master&lt;/div&gt;&lt;div&gt;# _menubar_frame: tkinter.Frame&lt;/div&gt;&lt;div&gt;# _pages_frame: tkinter.Frame&lt;/div&gt;&lt;div&gt;# _page_content_frame: tkinter.Frame&lt;/div&gt;&lt;div&gt;# _operate_mb: tkinter.Menubutton&lt;/div&gt;&lt;div&gt;# _operate_menu: tkinter.Menu&lt;/div&gt;&lt;/div&gt;&lt;div&gt;&lt;/div&gt;" style="text;strokeColor=none;fillColor=none;align=left;verticalAlign=top;spacingLeft=4;spacingRight=4;overflow=hidden;rotatable=0;points=[[0,0.5],[1,0.5]];portConstraint=eastwest;whiteSpace=wrap;html=1;fontColor=#1D3557;labelBackgroundColor=none;" parent="fwF8BYyaE2Du0UEf7IU_-17" vertex="1">
          <mxGeometry y="33" width="643" height="98" as="geometry" />
        </mxCell>
        <mxCell id="fwF8BYyaE2Du0UEf7IU_-19" value="" style="line;strokeWidth=1;fillColor=none;align=left;verticalAlign=middle;spacingTop=-1;spacingLeft=3;spacingRight=3;rotatable=0;labelPosition=right;points=[];portConstraint=eastwest;strokeColor=#457B9D;fontColor=#1D3557;labelBackgroundColor=none;" parent="fwF8BYyaE2Du0UEf7IU_-17" vertex="1">
          <mxGeometry y="131" width="643" height="8" as="geometry" />
        </mxCell>
        <mxCell id="DiK6o-BC5j8XPixK7rim-8" style="edgeStyle=orthogonalEdgeStyle;rounded=0;orthogonalLoop=1;jettySize=auto;html=1;entryX=0.49;entryY=1.019;entryDx=0;entryDy=0;entryPerimeter=0;strokeColor=#457B9D;fontColor=default;fillColor=#A8DADC;endArrow=open;endFill=0;startArrow=diamondThin;startFill=1;startSize=20;endSize=20;strokeWidth=2;labelBackgroundColor=none;" edge="1" parent="1" source="q2OQBRic7TehikJienfv-14" target="fwF8BYyaE2Du0UEf7IU_-16">
          <mxGeometry relative="1" as="geometry" />
        </mxCell>
        <mxCell id="DiK6o-BC5j8XPixK7rim-9" style="edgeStyle=orthogonalEdgeStyle;rounded=0;orthogonalLoop=1;jettySize=auto;html=1;strokeColor=#457B9D;fontColor=default;fillColor=#A8DADC;dashed=1;strokeWidth=2;startSize=20;endSize=20;endArrow=block;endFill=0;labelBackgroundColor=none;" edge="1" parent="1" source="fwF8BYyaE2Du0UEf7IU_-18" target="fwF8BYyaE2Du0UEf7IU_-13">
          <mxGeometry relative="1" as="geometry" />
        </mxCell>
        <mxCell id="DiK6o-BC5j8XPixK7rim-15" style="edgeStyle=orthogonalEdgeStyle;rounded=0;orthogonalLoop=1;jettySize=auto;html=1;entryX=1;entryY=0.5;entryDx=0;entryDy=0;strokeColor=#457B9D;fontColor=default;fillColor=#A8DADC;strokeWidth=2;startSize=20;endSize=20;endArrow=block;endFill=0;labelBackgroundColor=none;" edge="1" parent="1" source="G8m6GsgR82rq_fYz5S8Y-72" target="G8m6GsgR82rq_fYz5S8Y-63">
          <mxGeometry relative="1" as="geometry" />
        </mxCell>
        <mxCell id="DiK6o-BC5j8XPixK7rim-19" style="edgeStyle=orthogonalEdgeStyle;rounded=0;orthogonalLoop=1;jettySize=auto;html=1;entryX=1.001;entryY=0.835;entryDx=0;entryDy=0;entryPerimeter=0;strokeColor=#457B9D;fontColor=default;fillColor=#A8DADC;strokeWidth=2;startSize=20;endSize=20;startArrow=diamondThin;startFill=1;endArrow=open;endFill=0;labelBackgroundColor=none;" edge="1" parent="1" source="G8m6GsgR82rq_fYz5S8Y-6" target="lP_S5FxGJT-6sJz9UhhX-37">
          <mxGeometry relative="1" as="geometry" />
        </mxCell>
        <mxCell id="DiK6o-BC5j8XPixK7rim-22" value="&lt;font style=&quot;font-size: 48px;&quot;&gt;頁面管理器的組成&lt;/font&gt;" style="text;strokeColor=none;align=center;fillColor=none;html=1;verticalAlign=middle;whiteSpace=wrap;rounded=0;fontColor=#1D3557;" vertex="1" parent="1">
          <mxGeometry x="156" y="154" width="428" height="62" as="geometry" />
        </mxCell>
        <mxCell id="DiK6o-BC5j8XPixK7rim-24" style="edgeStyle=orthogonalEdgeStyle;rounded=0;orthogonalLoop=1;jettySize=auto;html=1;entryX=1;entryY=0.114;entryDx=0;entryDy=0;entryPerimeter=0;strokeColor=#457B9D;fontColor=#1D3557;fillColor=#A8DADC;strokeWidth=2;startSize=20;endSize=20;endArrow=block;endFill=0;dashed=1;" edge="1" parent="1" source="G8m6GsgR82rq_fYz5S8Y-17" target="G8m6GsgR82rq_fYz5S8Y-16">
          <mxGeometry relative="1" as="geometry" />
        </mxCell>
        <mxCell id="DiK6o-BC5j8XPixK7rim-25" style="edgeStyle=orthogonalEdgeStyle;rounded=0;orthogonalLoop=1;jettySize=auto;html=1;entryX=0.458;entryY=1.007;entryDx=0;entryDy=0;entryPerimeter=0;strokeColor=#457B9D;fontColor=#1D3557;fillColor=#A8DADC;startArrow=diamondThin;startFill=0;endArrow=open;endFill=0;strokeWidth=2;startSize=20;endSize=20;" edge="1" parent="1" source="G8m6GsgR82rq_fYz5S8Y-24" target="G8m6GsgR82rq_fYz5S8Y-16">
          <mxGeometry relative="1" as="geometry" />
        </mxCell>
        <mxCell id="DiK6o-BC5j8XPixK7rim-27" style="edgeStyle=orthogonalEdgeStyle;rounded=0;orthogonalLoop=1;jettySize=auto;html=1;entryX=0.813;entryY=0.011;entryDx=0;entryDy=0;entryPerimeter=0;strokeColor=#457B9D;fontColor=#1D3557;fillColor=#A8DADC;strokeWidth=2;startSize=20;endSize=20;endArrow=open;endFill=0;" edge="1" parent="1" source="q2OQBRic7TehikJienfv-8" target="G8m6GsgR82rq_fYz5S8Y-24">
          <mxGeometry relative="1" as="geometry" />
        </mxCell>
        <mxCell id="DiK6o-BC5j8XPixK7rim-28" value="" style="group" vertex="1" connectable="0" parent="1">
          <mxGeometry x="238" y="1964" width="351" height="188" as="geometry" />
        </mxCell>
        <mxCell id="G8m6GsgR82rq_fYz5S8Y-14" value="&lt;div&gt;&lt;font style=&quot;font-size: 16px;&quot;&gt;&amp;lt;&amp;lt;Interface&amp;gt;&amp;gt;&lt;/font&gt;&lt;/div&gt;&lt;span style=&quot;font-size: 16px;&quot;&gt;&lt;i&gt;IDrawMember&lt;/i&gt;&lt;/span&gt;" style="swimlane;fontStyle=1;align=center;verticalAlign=top;childLayout=stackLayout;horizontal=1;startSize=52;horizontalStack=0;resizeParent=1;resizeParentMax=0;resizeLast=0;collapsible=1;marginBottom=0;whiteSpace=wrap;html=1;labelBackgroundColor=none;fillColor=#A8DADC;strokeColor=#457B9D;fontColor=#1D3557;" parent="DiK6o-BC5j8XPixK7rim-28" vertex="1">
          <mxGeometry y="58" width="300" height="130" as="geometry">
            <mxRectangle x="100" y="60" width="120" height="40" as="alternateBounds" />
          </mxGeometry>
        </mxCell>
        <mxCell id="G8m6GsgR82rq_fYz5S8Y-15" value="" style="line;strokeWidth=1;fillColor=none;align=left;verticalAlign=middle;spacingTop=-1;spacingLeft=3;spacingRight=3;rotatable=0;labelPosition=right;points=[];portConstraint=eastwest;strokeColor=#457B9D;labelBackgroundColor=none;fontColor=#1D3557;" parent="G8m6GsgR82rq_fYz5S8Y-14" vertex="1">
          <mxGeometry y="52" width="300" height="8" as="geometry" />
        </mxCell>
        <mxCell id="G8m6GsgR82rq_fYz5S8Y-16" value="# &amp;lt;&amp;lt;classmethod&amp;gt;&amp;gt;&amp;nbsp;_expose_opts(cls) -&amp;gt; tuple[str, ...]&lt;div&gt;+&amp;nbsp;member_info(self) -&amp;gt; dict[str, str | int]&lt;/div&gt;&lt;div&gt;+&amp;nbsp;name(self) -&amp;gt; str&lt;/div&gt;&lt;div&gt;+&amp;nbsp;proportion(self) -&amp;gt; int&lt;/div&gt;" style="text;strokeColor=none;fillColor=none;align=left;verticalAlign=top;spacingLeft=4;spacingRight=4;overflow=hidden;rotatable=0;points=[[0,0.5],[1,0.5]];portConstraint=eastwest;whiteSpace=wrap;html=1;labelBackgroundColor=none;fontColor=#1D3557;" parent="G8m6GsgR82rq_fYz5S8Y-14" vertex="1">
          <mxGeometry y="60" width="300" height="70" as="geometry" />
        </mxCell>
        <mxCell id="q2OQBRic7TehikJienfv-7" value="" style="group;labelBackgroundColor=none;fontColor=#1D3557;" parent="DiK6o-BC5j8XPixK7rim-28" vertex="1" connectable="0">
          <mxGeometry x="222" width="34" height="58" as="geometry" />
        </mxCell>
        <mxCell id="q2OQBRic7TehikJienfv-1" value="DM" style="ellipse;whiteSpace=wrap;html=1;aspect=fixed;fillColor=#A8DADC;strokeColor=#457B9D;labelBackgroundColor=none;fontColor=#1D3557;" parent="q2OQBRic7TehikJienfv-7" vertex="1">
          <mxGeometry width="34" height="34" as="geometry" />
        </mxCell>
        <mxCell id="q2OQBRic7TehikJienfv-6" value="" style="endArrow=none;html=1;rounded=0;fillColor=#A8DADC;strokeColor=#457B9D;labelBackgroundColor=none;fontColor=default;" parent="q2OQBRic7TehikJienfv-7" edge="1">
          <mxGeometry width="50" height="50" relative="1" as="geometry">
            <mxPoint x="17" y="58" as="sourcePoint" />
            <mxPoint x="17" y="34" as="targetPoint" />
          </mxGeometry>
        </mxCell>
        <mxCell id="DiK6o-BC5j8XPixK7rim-30" value="&lt;font style=&quot;font-size: 48px;&quot;&gt;抽獎池的組成&lt;/font&gt;" style="text;strokeColor=none;align=center;fillColor=none;html=1;verticalAlign=middle;whiteSpace=wrap;rounded=0;fontColor=#1D3557;" vertex="1" parent="1">
          <mxGeometry x="157" y="1890" width="305" height="55" as="geometry" />
        </mxCell>
      </root>
    </mxGraphModel>
  </diagram>
</mxfile>
